<svg xmlns="http://www.w3.org/2000/svg" viewBox="50 30 156 158" fill="none">
  <!-- canonical TokenJam jar (currentColor so it themes light/dark) -->
  <g stroke="currentColor" stroke-width="7" stroke-linecap="round" stroke-linejoin="round">
    <rect x="74" y="44" width="92" height="20" rx="6" ry="6"/>
    <path d="M 104 72 L 74 72 L 74 152 L 104 152"/>
    <path d="M 136 72 L 166 72 L 166 152 L 136 152"/>
  </g>
  <g fill="currentColor" stroke="none" fill-rule="evenodd">
    <path transform="translate(85.68,104)" d="M21.19,-14.32 L16.75,-0.00 L13.63,-0.00 L10.74,-10.58 L7.85,-0.00 L4.73,-0.00 L0.26,-14.32 L3.27,-14.32 L6.26,-2.81 L9.31,-14.32 L12.40,-14.32 L15.32,-2.86 L18.28,-14.32 L21.19,-14.32 Z"/>
    <path transform="translate(106.83,107)" d="M0.54,-7.50 L0.54,-8.75 L3.04,-8.75 L3.04,-0.00 L1.66,-0.00 L1.66,-7.50 L0.54,-7.50 Z M4.74,-7.50 L4.74,-8.75 L7.24,-8.75 L7.24,-0.00 L5.86,-0.00 L5.86,-7.50 L4.74,-7.50 Z"/>
    <path transform="translate(123.97,104)" d="M21.19,-14.32 L16.75,-0.00 L13.63,-0.00 L10.74,-10.58 L7.85,-0.00 L4.73,-0.00 L0.26,-14.32 L3.27,-14.32 L6.26,-2.81 L9.31,-14.32 L12.40,-14.32 L15.32,-2.86 L18.28,-14.32 L21.19,-14.32 Z"/>
    <path transform="translate(145.12,107)" d="M0.54,-7.50 L0.54,-8.75 L3.04,-8.75 L3.04,-0.00 L1.66,-0.00 L1.66,-7.50 L0.54,-7.50 Z M5.68,-1.86 Q6.83,-2.86 7.49,-3.50 Q8.16,-4.14 8.60,-4.84 Q9.05,-5.53 9.05,-6.23 Q9.05,-6.95 8.71,-7.36 Q8.36,-7.76 7.63,-7.76 Q6.92,-7.76 6.53,-7.31 Q6.14,-6.86 6.12,-6.11 L4.80,-6.11 Q4.84,-7.48 5.62,-8.20 Q6.41,-8.93 7.62,-8.93 Q8.93,-8.93 9.67,-8.21 Q10.40,-7.49 10.40,-6.29 Q10.40,-5.42 9.97,-4.63 Q9.53,-3.83 8.92,-3.20 Q8.32,-2.57 7.38,-1.74 L6.84,-1.26 L10.64,-1.26 L10.64,-0.12 L4.81,-0.12 L4.81,-1.12 L5.68,-1.86 Z"/>
    <path transform="translate(84.35,128)" d="M21.19,-14.32 L16.75,-0.00 L13.63,-0.00 L10.74,-10.58 L7.85,-0.00 L4.73,-0.00 L0.26,-14.32 L3.27,-14.32 L6.26,-2.81 L9.31,-14.32 L12.40,-14.32 L15.32,-2.86 L18.28,-14.32 L21.19,-14.32 Z"/>
    <path transform="translate(105.44,131)" d="M1.48,-1.86 Q2.63,-2.86 3.29,-3.50 Q3.96,-4.14 4.40,-4.84 Q4.85,-5.53 4.85,-6.23 Q4.85,-6.95 4.51,-7.36 Q4.16,-7.76 3.43,-7.76 Q2.72,-7.76 2.33,-7.31 Q1.94,-6.86 1.92,-6.11 L0.60,-6.11 Q0.64,-7.48 1.42,-8.20 Q2.21,-8.93 3.42,-8.93 Q4.73,-8.93 5.47,-8.21 Q6.20,-7.49 6.20,-6.29 Q6.20,-5.42 5.77,-4.63 Q5.33,-3.83 4.72,-3.20 Q4.12,-2.57 3.18,-1.74 L2.64,-1.26 L6.44,-1.26 L6.44,-0.12 L0.61,-0.12 L0.61,-1.12 L1.48,-1.86 Z M7.46,-7.50 L7.46,-8.75 L9.96,-8.75 L9.96,-0.00 L8.58,-0.00 L8.58,-7.50 L7.46,-7.50 Z"/>
    <path transform="translate(122.64,128)" d="M21.19,-14.32 L16.75,-0.00 L13.63,-0.00 L10.74,-10.58 L7.85,-0.00 L4.73,-0.00 L0.26,-14.32 L3.27,-14.32 L6.26,-2.81 L9.31,-14.32 L12.40,-14.32 L15.32,-2.86 L18.28,-14.32 L21.19,-14.32 Z"/>
    <path transform="translate(143.73,131)" d="M1.48,-1.86 Q2.63,-2.86 3.29,-3.50 Q3.96,-4.14 4.40,-4.84 Q4.85,-5.53 4.85,-6.23 Q4.85,-6.95 4.51,-7.36 Q4.16,-7.76 3.43,-7.76 Q2.72,-7.76 2.33,-7.31 Q1.94,-6.86 1.92,-6.11 L0.60,-6.11 Q0.64,-7.48 1.42,-8.20 Q2.21,-8.93 3.42,-8.93 Q4.73,-8.93 5.47,-8.21 Q6.20,-7.49 6.20,-6.29 Q6.20,-5.42 5.77,-4.63 Q5.33,-3.83 4.72,-3.20 Q4.12,-2.57 3.18,-1.74 L2.64,-1.26 L6.44,-1.26 L6.44,-0.12 L0.61,-0.12 L0.61,-1.12 L1.48,-1.86 Z M8.40,-1.86 Q9.55,-2.86 10.22,-3.50 Q10.88,-4.14 11.33,-4.84 Q11.77,-5.53 11.77,-6.23 Q11.77,-6.95 11.43,-7.36 Q11.09,-7.76 10.36,-7.76 Q9.65,-7.76 9.26,-7.31 Q8.87,-6.86 8.84,-6.11 L7.52,-6.11 Q7.56,-7.48 8.35,-8.20 Q9.13,-8.93 10.34,-8.93 Q11.65,-8.93 12.39,-8.21 Q13.13,-7.49 13.13,-6.29 Q13.13,-5.42 12.69,-4.63 Q12.25,-3.83 11.65,-3.20 Q11.04,-2.57 10.10,-1.74 L9.56,-1.26 L13.37,-1.26 L13.37,-0.12 L7.54,-0.12 L7.54,-1.12 L8.40,-1.86 Z"/>
  </g>
  <!-- green verification check seated in the jar's bottom-right corner -->
  <circle cx="172" cy="160" r="28" fill="var(--bench-bg, #fff)"/>
  <circle cx="172" cy="160" r="23" fill="#16a34a"/>
  <path d="M161 161 L169 169 L185 149" fill="none" stroke="#ffffff" stroke-width="6.5" stroke-linecap="round" stroke-linejoin="round"/>
</svg>
